<svg xmlns="http://www.w3.org/2000/svg" viewBox="0 0 48 48" width="48" height="48">
  <defs>
    <linearGradient id="bg" x1="0" y1="0" x2="1" y2="1">
      <stop offset="0%" stop-color="#f17a28"/>
      <stop offset="100%" stop-color="#c85a20"/>
    </linearGradient>
  </defs>
  <rect width="48" height="48" rx="10" fill="url(#bg)"/>
  <path d="M24 8c0 0-2 6-2 10s2 6 2 6c0 0 2-2 2-6s-2-10-2-10z M18 18c0 0-1 4 1 8s5 6 5 6c0 0 0-3-1-6s-5-8-5-8z M30 18c0 0 1 4-1 8s-5 6-5 6c0 0 0-3 1-6s5-8 5-8z M24 24c0 0-4 4-4 10s4 8 4 8c0 0 4-2 4-8s-4-10-4-10z" fill="white" opacity="0.95"/>
</svg>
